# xmcd
#
# Track frame offsets: 
#        150
#        13420
#        30848
#        49348
#        62540
#        76495
#        97203
#        121848
#        142670
#        176780
#        203473
#        233583
#
# Disc length: 3593 seconds
#
# Revision: 2
# Processed by: cddbd v1.5.2PL0 Copyright (c) Steve Scherf et al.
# Submitted via: ExactAudioCopy v0.95b4
#
DISCID=940e070c
DTITLE=Janis Joplin - Bye, Bye, Baby [Ita]
DYEAR=1992
DGENRE=Rock
TTITLE0=Down On Me
TTITLE1=Bye, Bye, Baby
TTITLE2=Piece Of My Heart
TTITLE3=Road Block
TTITLE4=Flower In The Sun
TTITLE5=Half Moon
TTITLE6=Kozmic Blues
TTITLE7=Move Over
TTITLE8=Ego Rock
TTITLE9=All Is Loneliness
TTITLE10=Try (Just A Little Bit Harder)
TTITLE11=Ball And Chain
EXTD=
EXTT0=
EXTT1=
EXTT2=
EXTT3=
EXTT4=
EXTT5=
EXTT6=
EXTT7=
EXTT8=
EXTT9=
EXTT10=
EXTT11=
PLAYORDER=
